# File created by Blade
# Date/Time:  Thu Jan 22 19:01:15 2015
# Frame Rate: 120.000 fps
#------------------------------------------------------
:FULLY-SPECIFIED
:DEGREES
2169
root -2.932026 33.159994 -0.177397 7.738434 -4.245446 2.086868
RightUpLeg -1.826709 -3.506204 -1.689877
RightLeg 1.038602 -0.000000 -0.000000
RightFoot -11.589735 -3.439896 2.826856
RightToeBase 5.454587 -0.000000 -0.000000
LeftUpLeg -0.567711 6.112978 1.404166
LeftLeg 1.477279 -0.000000 -0.000000
LeftFoot -11.310816 1.496553 -10.080921
LeftToeBase 7.441229 -0.000000 -0.000000
Spine -10.297028 -6.526956 -2.784030
RightShoulder -18.428840 -3.187466 -35.267017
RightArm 20.675956 43.184951 21.511565
RightForeArm -2.852280 -0.000000 15.466974
RightHand 8.885346 -0.000000 -9.069009
RightHandThumb1 -24.326973 -0.000000 -32.862282
LeftShoulder -17.783273 21.385382 18.080993
LeftArm -28.411175 75.302033 -98.384376
LeftForeArm 51.120530 -0.000000 55.025687
LeftHand 17.487223 -0.000000 -11.596821
LeftHandThumb1 -26.253704 0.000000 33.147579
Head 1.699005 11.685114 13.079282
2170
root -2.929649 33.160608 -0.188823 7.762433 -4.298851 2.089101
RightUpLeg -1.889481 -3.450344 -1.701545
RightLeg 1.056642 -0.000000 -0.000000
RightFoot -11.581476 -3.427924 2.819070
RightToeBase 5.450403 -0.000000 -0.000000
LeftUpLeg -0.588908 6.197148 1.388493
LeftLeg 1.445075 -0.000000 -0.000000
LeftFoot -11.282541 1.467291 -10.065579
LeftToeBase 7.453390 -0.000000 -0.000000
Spine -10.317065 -6.537254 -2.712378
RightShoulder -18.371461 -3.496732 -35.000443
RightArm 20.453858 42.417640 21.512985
RightForeArm -2.998949 0.000000 15.238139
RightHand 8.703744 -0.000000 -8.762455
RightHandThumb1 -24.326973 -0.000000 -32.862282
LeftShoulder -17.860304 21.120851 18.116692
LeftArm -25.339765 74.807691 -95.154593
LeftForeArm 50.938905 -0.000000 53.766886
LeftHand 17.054770 -0.000000 -11.853480
LeftHandThumb1 -26.253704 0.000000 33.147579
Head 1.537669 11.808202 12.941930
2171
root -2.934295 33.161474 -0.208048 7.762811 -4.249511 2.090335
RightUpLeg -1.916889 -3.480729 -1.684773
RightLeg 1.058540 -0.000000 -0.000000
RightFoot -11.609695 -3.400934 2.944179
RightToeBase 5.632958 -0.000000 -0.000000
LeftUpLeg -0.649231 6.189471 1.401775
LeftLeg 1.480715 -0.000000 -0.000000
LeftFoot -11.262561 1.421108 -10.075231
LeftToeBase 7.440665 -0.000000 -0.000000
Spine -10.259808 -6.643871 -2.671945
RightShoulder -18.311343 -3.869066 -34.641460
RightArm 20.225757 41.709402 21.496003
RightForeArm -3.142179 -0.000000 15.013945
RightHand 8.517751 -0.000000 -8.546645
RightHandThumb1 -24.326973 -0.000000 -32.862282
LeftShoulder -17.911925 20.774829 18.206961
LeftArm -22.323003 74.077797 -91.989047
LeftForeArm 50.615734 -0.000000 52.471585
LeftHand 16.702574 -0.000000 -12.495385
LeftHandThumb1 -26.253704 0.000000 33.147579
Head 1.297215 11.812922 12.811453
2172
root -2.931916 33.162050 -0.224162 7.785292 -4.272351 2.108829
RightUpLeg -1.979334 -3.466593 -1.707790
RightLeg 1.075794 -0.000000 -0.000000
RightFoot -11.571679 -3.425630 2.818969
RightToeBase 5.461558 -0.000000 -0.000000
LeftUpLeg -0.693764 6.216144 1.373252
LeftLeg 1.469035 -0.000000 -0.000000
LeftFoot -11.234955 1.417609 -10.068662
LeftToeBase 7.459988 -0.000000 -0.000000
Spine -10.254299 -6.686668 -2.624854
RightShoulder -18.247219 -4.335788 -34.296179
RightArm 20.076777 41.081842 21.572183
RightForeArm -3.211268 0.000000 14.829204
RightHand 8.446931 -0.000000 -8.322699
RightHandThumb1 -24.326973 -0.000000 -32.862282
LeftShoulder -18.030674 20.601744 18.199302
LeftArm -18.837704 73.302256 -88.384011
LeftForeArm 50.350898 -0.000000 51.124169
LeftHand 16.566394 -0.000000 -12.975721
LeftHandThumb1 -26.253704 0.000000 33.147579
Head 1.067499 11.887248 12.667786
2173
root -2.931247 33.161921 -0.241712 7.819299 -4.271015 2.117824
RightUpLeg -2.049154 -3.446604 -1.715967
RightLeg 1.085636 -0.000000 -0.000000
RightFoot -11.568979 -3.434826 2.818943
RightToeBase 5.458296 -0.000000 -0.000000
LeftUpLeg -0.761424 6.219996 1.359573
LeftLeg 1.468856 -0.000000 -0.000000
LeftFoot -11.219569 1.413236 -10.068022
LeftToeBase 7.463644 -0.000000 -0.000000
Spine -10.244235 -6.729856 -2.557858
RightShoulder -18.197959 -4.824321 -33.966506
RightArm 19.900384 40.344724 21.615513
RightForeArm -3.284620 -0.000000 14.617250
RightHand 8.317448 0.000000 -8.101886
RightHandThumb1 -24.326973 -0.000000 -32.862282
LeftShoulder -18.171796 20.349065 18.191920
LeftArm -15.612780 72.332424 -85.016402
LeftForeArm 50.001180 -0.000000 49.735808
LeftHand 16.002657 -0.000000 -13.499800
LeftHandThumb1 -26.253704 0.000000 33.147579
Head 0.814375 12.110353 12.551334
2174
root -2.932767 33.162350 -0.264010 7.851447 -4.232985 2.126768
RightUpLeg -2.121898 -3.467105 -1.710133
RightLeg 1.096211 -0.000000 -0.000000
RightFoot -11.597130 -3.422294 2.897759
RightToeBase 5.600210 -0.000000 -0.000000
LeftUpLeg -0.859364 6.216228 1.354317
LeftLeg 1.506611 -0.000000 -0.000000
LeftFoot -11.196550 1.374861 -10.047712
LeftToeBase 7.445288 -0.000000 -0.000000
Spine -10.217064 -6.846365 -2.501336
RightShoulder -18.119877 -5.502195 -33.479723
RightArm 19.800622 39.861413 21.674005
RightForeArm -3.362993 -0.000000 14.496018
RightHand 8.167418 -0.000000 -7.754596
RightHandThumb1 -24.326973 -0.000000 -32.862282
LeftShoulder -18.330681 20.018294 18.224068
LeftArm -12.742638 71.156690 -82.025914
LeftForeArm 49.378175 -0.000000 48.239812
LeftHand 15.248404 0.000000 -13.841160
LeftHandThumb1 -26.253704 0.000000 33.147579
Head 0.547063 12.265644 12.447319
2175
root -2.933170 33.162385 -0.278403 7.858944 -4.230064 2.121862
RightUpLeg -2.154890 -3.435825 -1.703486
RightLeg 1.093961 -0.000000 -0.000000
RightFoot -11.589621 -3.443039 2.894729
RightToeBase 5.274683 -0.000000 -0.000000
LeftUpLeg -0.883112 6.227280 1.357983
LeftLeg 1.486933 -0.000000 -0.000000
LeftFoot -11.186881 1.368263 -10.039123
LeftToeBase 7.500864 -0.000000 -0.000000
Spine -10.194205 -6.884614 -2.429774
RightShoulder -18.097941 -6.069630 -33.098397
RightArm 19.749600 39.178339 21.824513
RightForeArm -3.569657 0.000000 14.316086
RightHand 7.996270 0.000000 -7.595004
RightHandThumb1 -24.326973 -0.000000 -32.862282
LeftShoulder -18.470340 19.700014 18.227428
LeftArm -10.081730 69.997069 -79.254613
LeftForeArm 48.960227 -0.000000 46.740446
LeftHand 14.848411 -0.000000 -14.463606
LeftHandThumb1 -26.253704 0.000000 33.147579
Head 0.290323 12.224954 12.310762
2176
root -2.929980 33.162993 -0.291605 7.873285 -4.220573 2.129688
RightUpLeg -2.179010 -3.426037 -1.713573
RightLeg 1.074658 -0.000000 -0.000000
RightFoot -11.536642 -3.494643 2.810889
RightToeBase 5.457700 -0.000000 -0.000000
LeftUpLeg -0.912909 6.229893 1.340242
LeftLeg 1.462688 -0.000000 -0.000000
LeftFoot -11.157445 1.375330 -10.020372
LeftToeBase 7.525586 -0.000000 -0.000000
Spine -10.183631 -6.923601 -2.362252
RightShoulder -18.069470 -6.482505 -32.757932
RightArm 19.602756 38.293463 21.870060
RightForeArm -3.694552 -0.000000 14.143663
RightHand 7.991616 -0.000000 -7.112839
RightHandThumb1 -24.326973 -0.000000 -32.862282
LeftShoulder -18.685192 19.480842 18.192806
LeftArm -7.073880 68.598821 -76.183787
LeftForeArm 48.037488 0.000000 45.076140
LeftHand 14.699874 0.000000 -14.970315
LeftHandThumb1 -26.253704 0.000000 33.147579
Head 0.033976 12.182574 12.138969
2177
root -2.933632 33.162671 -0.317037 7.924188 -4.200211 2.131539
RightUpLeg -2.292762 -3.429216 -1.698009
RightLeg 1.121641 -0.000000 -0.000000
RightFoot -11.546500 -3.503970 2.790765
RightToeBase 5.490635 -0.000000 -0.000000
LeftUpLeg -1.026076 6.241279 1.342223
LeftLeg 1.491817 -0.000000 -0.000000
LeftFoot -11.143336 1.335074 -10.019564
LeftToeBase 7.479772 -0.000000 -0.000000
Spine -10.175138 -6.973920 -2.303927
RightShoulder -18.048175 -6.757513 -32.470032
RightArm 19.391732 37.241748 21.953105
RightForeArm -3.951204 -0.000000 14.009554
RightHand 7.748123 -0.000000 -6.888325
RightHandThumb1 -24.326973 -0.000000 -32.862282
LeftShoulder -18.900006 19.172267 18.144560
LeftArm -4.459715 67.223034 -73.420408
LeftForeArm 47.565541 -0.000000 43.538458
LeftHand 14.082944 -0.000000 -15.223273
LeftHandThumb1 -26.253704 0.000000 33.147579
Head -0.261636 12.326114 12.062981
2178
root -2.932888 33.162590 -0.336772 7.945208 -4.180781 2.143478
RightUpLeg -2.351013 -3.426607 -1.705339
RightLeg 1.133605 -0.000000 -0.000000
RightFoot -11.551384 -3.515963 2.811752
RightToeBase 5.474226 -0.000000 -0.000000
LeftUpLeg -1.078734 6.223362 1.327151
LeftLeg 1.476037 -0.000000 -0.000000
LeftFoot -11.096098 1.307417 -10.109200
LeftToeBase 7.392608 -0.000000 -0.000000
Spine -10.152911 -6.990216 -2.259277
RightShoulder -18.041341 -7.265221 -32.074842
RightArm 19.294077 36.396835 22.048029
RightForeArm -4.213076 -0.000000 13.843988
RightHand 7.707681 -0.000000 -6.540632
RightHandThumb1 -24.326973 -0.000000 -32.862282
LeftShoulder -19.074066 18.833548 18.133457
LeftArm -2.144935 65.798462 -70.969298
LeftForeArm 47.059549 -0.000000 42.026842
LeftHand 13.118784 0.000000 -15.183496
LeftHandThumb1 -26.253704 0.000000 33.147579
Head -0.495641 12.272866 11.904596
2179
root -2.927970 33.162094 -0.346987 7.938714 -4.160878 2.158793
RightUpLeg -2.336016 -3.480071 -1.725326
RightLeg 1.082410 -0.000000 -0.000000
RightFoot -11.531524 -3.482482 2.786547
RightToeBase 5.492465 -0.000000 -0.000000
LeftUpLeg -1.071031 6.246355 1.304728
LeftLeg 1.419753 -0.000000 -0.000000
LeftFoot -11.069881 1.313231 -9.980964
LeftToeBase 7.475307 -0.000000 -0.000000
Spine -10.130635 -7.006155 -2.174487
RightShoulder -18.021706 -8.006179 -31.643036
RightArm 19.249821 35.622753 22.121107
RightForeArm -4.310557 -0.000000 13.708462
RightHand 7.621028 -0.000000 -6.313911
RightHandThumb1 -24.326973 -0.000000 -32.862282
LeftShoulder -19.243815 18.432178 18.036540
LeftArm -0.256025 64.355450 -68.777568
LeftForeArm 46.647658 0.000000 40.708798
LeftHand 12.373311 -0.000000 -15.104287
LeftHandThumb1 -26.253704 0.000000 33.147579
Head -0.731238 12.348975 11.701330
2180
root -2.927275 33.161771 -0.359215 7.984965 -4.149250 2.172017
RightUpLeg -2.389712 -3.504517 -1.731842
RightLeg 1.054469 -0.000000 -0.000000
RightFoot -11.520601 -3.477840 2.780619
RightToeBase 5.504793 -0.000000 -0.000000
LeftUpLeg -1.112385 6.252284 1.285881
LeftLeg 1.356461 -0.000000 -0.000000
LeftFoot -11.025972 1.298649 -10.009098
LeftToeBase 7.525786 -0.000000 -0.000000
Spine -10.189458 -6.979744 -2.094363
RightShoulder -18.019187 -8.398513 -31.355847
RightArm 19.120373 34.620707 22.254341
RightForeArm -4.503722 -0.000000 13.569447
RightHand 7.652291 -0.000000 -5.917420
RightHandThumb1 -24.326973 -0.000000 -32.862282
LeftShoulder -19.382266 18.092369 17.985318
LeftArm 1.662259 62.827953 -66.621846
LeftForeArm 46.244475 -0.000000 39.362565
LeftHand 11.957623 -0.000000 -15.159476
LeftHandThumb1 -26.253704 0.000000 33.147579
Head -0.917591 12.394184 11.459423
2181
root -2.930935 33.162572 -0.385375 8.050493 -4.035370 2.187904
RightUpLeg -2.487112 -3.595097 -1.719226
RightLeg 1.065180 -0.000000 -0.000000
RightFoot -11.517752 -3.492090 2.772736
RightToeBase 5.513185 -0.000000 -0.000000
LeftUpLeg -1.252903 6.149868 1.285406
LeftLeg 1.373031 -0.000000 -0.000000
LeftFoot -10.992492 1.283091 -10.013994
LeftToeBase 7.570239 -0.000000 -0.000000
Spine -10.208349 -7.120651 -2.015866
RightShoulder -18.019132 -8.742755 -31.021208
RightArm 19.079480 33.571546 22.419034
RightForeArm -4.741893 -0.000000 13.439265
RightHand 7.552075 -0.000000 -5.708370
RightHandThumb1 -24.326973 -0.000000 -32.862282
LeftShoulder -19.528386 17.720100 17.932740
LeftArm 3.232150 61.097398 -64.799974
LeftForeArm 46.176732 -0.000000 38.093663
LeftHand 11.459384 -0.000000 -14.905678
LeftHandThumb1 -26.253704 0.000000 33.147579
Head -1.177275 12.459629 11.244724
